
	<svg version="1.1"
	baseProfile="full"
	xmlns="http://www.w3.org/2000/svg"
	xmlns:xlink="http://www.w3.org/1999/xlink"
	xmlns:ev="http://www.w3.org/2001/xml-events">
	
<rect x="30" y="30" width="1200" height="600" stroke="grey" fill="transparent" />
<circle cx="991" cy="630" r="5" stroke="red" fill="transparent" stroke-width="2"/>
<text x="996" y="635" >0</text>
<line x1="991" y1="630" x2="516" y2="505" stroke="blue" stroke-width="2"/>
<line x1="991" y1="630" x2="1230" y2="260" stroke="blue" stroke-width="2"/>
<line x1="991" y1="630" x2="841" y2="376" stroke="blue" stroke-width="2"/>
<line x1="991" y1="630" x2="531" y2="209" stroke="blue" stroke-width="2"/>
<circle cx="516" cy="505" r="5" stroke="red" fill="transparent" stroke-width="2"/>
<text x="521" y="510" >1</text>
<line x1="516" y1="505" x2="887" y2="30" stroke="blue" stroke-width="2"/>
<line x1="516" y1="505" x2="841" y2="376" stroke="blue" stroke-width="2"/>
<line x1="516" y1="505" x2="143" y2="512" stroke="blue" stroke-width="2"/>
<line x1="516" y1="505" x2="30" y2="195" stroke="blue" stroke-width="2"/>
<circle cx="887" cy="30" r="5" stroke="red" fill="transparent" stroke-width="2"/>
<text x="892" y="35" >2</text>
<line x1="887" y1="30" x2="1230" y2="260" stroke="blue" stroke-width="2"/>
<line x1="887" y1="30" x2="841" y2="376" stroke="blue" stroke-width="2"/>
<circle cx="1230" cy="260" r="5" stroke="red" fill="transparent" stroke-width="2"/>
<text x="1235" y="265" >3</text>
<line x1="1230" y1="260" x2="841" y2="376" stroke="blue" stroke-width="2"/>
<line x1="1230" y1="260" x2="531" y2="209" stroke="blue" stroke-width="2"/>
<circle cx="841" cy="376" r="5" stroke="red" fill="transparent" stroke-width="2"/>
<text x="846" y="381" >4</text>
<line x1="841" y1="376" x2="143" y2="512" stroke="blue" stroke-width="2"/>
<circle cx="531" cy="209" r="5" stroke="red" fill="transparent" stroke-width="2"/>
<text x="536" y="214" >5</text>
<line x1="531" y1="209" x2="143" y2="512" stroke="blue" stroke-width="2"/>
<line x1="531" y1="209" x2="30" y2="195" stroke="blue" stroke-width="2"/>
<circle cx="143" cy="512" r="5" stroke="red" fill="transparent" stroke-width="2"/>
<text x="148" y="517" >6</text>
<line x1="143" y1="512" x2="30" y2="195" stroke="blue" stroke-width="2"/>
<circle cx="30" cy="195" r="5" stroke="red" fill="transparent" stroke-width="2"/>
<text x="35" y="200" >7</text>
</svg>