
	<svg version="1.1"
	baseProfile="full"
	xmlns="http://www.w3.org/2000/svg"
	xmlns:xlink="http://www.w3.org/1999/xlink"
	xmlns:ev="http://www.w3.org/2001/xml-events">
	
<rect x="30" y="30" width="1200" height="600" stroke="grey" fill="transparent" />
<circle cx="992" cy="71" r="5" stroke="red" fill="transparent" stroke-width="2"/>
<text x="997" y="76" >0</text>
<line x1="992" y1="71" x2="30" y2="630" stroke="blue" stroke-width="2"/>
<line x1="992" y1="71" x2="1128" y2="133" stroke="blue" stroke-width="2"/>
<line x1="992" y1="71" x2="45" y2="30" stroke="blue" stroke-width="2"/>
<line x1="992" y1="71" x2="414" y2="173" stroke="blue" stroke-width="2"/>
<circle cx="30" cy="630" r="5" stroke="red" fill="transparent" stroke-width="2"/>
<text x="35" y="635" >1</text>
<line x1="30" y1="630" x2="1230" y2="81" stroke="blue" stroke-width="2"/>
<line x1="30" y1="630" x2="45" y2="30" stroke="blue" stroke-width="2"/>
<line x1="30" y1="630" x2="297" y2="219" stroke="blue" stroke-width="2"/>
<line x1="30" y1="630" x2="210" y2="137" stroke="blue" stroke-width="2"/>
<circle cx="1230" cy="81" r="5" stroke="red" fill="transparent" stroke-width="2"/>
<text x="1235" y="86" >2</text>
<line x1="1230" y1="81" x2="1128" y2="133" stroke="blue" stroke-width="2"/>
<line x1="1230" y1="81" x2="45" y2="30" stroke="blue" stroke-width="2"/>
<circle cx="1128" cy="133" r="5" stroke="red" fill="transparent" stroke-width="2"/>
<text x="1133" y="138" >3</text>
<line x1="1128" y1="133" x2="45" y2="30" stroke="blue" stroke-width="2"/>
<line x1="1128" y1="133" x2="414" y2="173" stroke="blue" stroke-width="2"/>
<circle cx="45" cy="30" r="5" stroke="red" fill="transparent" stroke-width="2"/>
<text x="50" y="35" >4</text>
<line x1="45" y1="30" x2="297" y2="219" stroke="blue" stroke-width="2"/>
<circle cx="414" cy="173" r="5" stroke="red" fill="transparent" stroke-width="2"/>
<text x="419" y="178" >5</text>
<line x1="414" y1="173" x2="297" y2="219" stroke="blue" stroke-width="2"/>
<line x1="414" y1="173" x2="210" y2="137" stroke="blue" stroke-width="2"/>
<circle cx="297" cy="219" r="5" stroke="red" fill="transparent" stroke-width="2"/>
<text x="302" y="224" >6</text>
<line x1="297" y1="219" x2="210" y2="137" stroke="blue" stroke-width="2"/>
<circle cx="210" cy="137" r="5" stroke="red" fill="transparent" stroke-width="2"/>
<text x="215" y="142" >7</text>
</svg>