
	<svg version="1.1"
	baseProfile="full"
	xmlns="http://www.w3.org/2000/svg"
	xmlns:xlink="http://www.w3.org/1999/xlink"
	xmlns:ev="http://www.w3.org/2001/xml-events">
	
<rect x="30" y="30" width="1200" height="600" stroke="grey" fill="transparent" />
<circle cx="-9223372036854775778" cy="-9223372036854775778" r="5" stroke="red" fill="transparent" stroke-width="2"/>
<text x="-9223372036854775773" y="-9223372036854775773" >0</text>
<line x1="-9223372036854775778" y1="-9223372036854775778" x2="-9223372036854775778" y2="-9223372036854775778" stroke="blue" stroke-width="2"/>
<line x1="-9223372036854775778" y1="-9223372036854775778" x2="-9223372036854775778" y2="-9223372036854775778" stroke="blue" stroke-width="2"/>
<line x1="-9223372036854775778" y1="-9223372036854775778" x2="-9223372036854775778" y2="-9223372036854775778" stroke="blue" stroke-width="2"/>
<line x1="-9223372036854775778" y1="-9223372036854775778" x2="-9223372036854775778" y2="-9223372036854775778" stroke="blue" stroke-width="2"/>
<circle cx="-9223372036854775778" cy="-9223372036854775778" r="5" stroke="red" fill="transparent" stroke-width="2"/>
<text x="-9223372036854775773" y="-9223372036854775773" >1</text>
<line x1="-9223372036854775778" y1="-9223372036854775778" x2="-9223372036854775778" y2="-9223372036854775778" stroke="blue" stroke-width="2"/>
<line x1="-9223372036854775778" y1="-9223372036854775778" x2="-9223372036854775778" y2="-9223372036854775778" stroke="blue" stroke-width="2"/>
<line x1="-9223372036854775778" y1="-9223372036854775778" x2="-9223372036854775778" y2="-9223372036854775778" stroke="blue" stroke-width="2"/>
<line x1="-9223372036854775778" y1="-9223372036854775778" x2="-9223372036854775778" y2="-9223372036854775778" stroke="blue" stroke-width="2"/>
<circle cx="-9223372036854775778" cy="-9223372036854775778" r="5" stroke="red" fill="transparent" stroke-width="2"/>
<text x="-9223372036854775773" y="-9223372036854775773" >2</text>
<line x1="-9223372036854775778" y1="-9223372036854775778" x2="-9223372036854775778" y2="-9223372036854775778" stroke="blue" stroke-width="2"/>
<line x1="-9223372036854775778" y1="-9223372036854775778" x2="-9223372036854775778" y2="-9223372036854775778" stroke="blue" stroke-width="2"/>
<circle cx="-9223372036854775778" cy="-9223372036854775778" r="5" stroke="red" fill="transparent" stroke-width="2"/>
<text x="-9223372036854775773" y="-9223372036854775773" >3</text>
<line x1="-9223372036854775778" y1="-9223372036854775778" x2="-9223372036854775778" y2="-9223372036854775778" stroke="blue" stroke-width="2"/>
<line x1="-9223372036854775778" y1="-9223372036854775778" x2="-9223372036854775778" y2="-9223372036854775778" stroke="blue" stroke-width="2"/>
<circle cx="-9223372036854775778" cy="-9223372036854775778" r="5" stroke="red" fill="transparent" stroke-width="2"/>
<text x="-9223372036854775773" y="-9223372036854775773" >4</text>
<line x1="-9223372036854775778" y1="-9223372036854775778" x2="-9223372036854775778" y2="-9223372036854775778" stroke="blue" stroke-width="2"/>
<circle cx="-9223372036854775778" cy="-9223372036854775778" r="5" stroke="red" fill="transparent" stroke-width="2"/>
<text x="-9223372036854775773" y="-9223372036854775773" >5</text>
<line x1="-9223372036854775778" y1="-9223372036854775778" x2="-9223372036854775778" y2="-9223372036854775778" stroke="blue" stroke-width="2"/>
<line x1="-9223372036854775778" y1="-9223372036854775778" x2="-9223372036854775778" y2="-9223372036854775778" stroke="blue" stroke-width="2"/>
<circle cx="-9223372036854775778" cy="-9223372036854775778" r="5" stroke="red" fill="transparent" stroke-width="2"/>
<text x="-9223372036854775773" y="-9223372036854775773" >6</text>
<line x1="-9223372036854775778" y1="-9223372036854775778" x2="-9223372036854775778" y2="-9223372036854775778" stroke="blue" stroke-width="2"/>
<circle cx="-9223372036854775778" cy="-9223372036854775778" r="5" stroke="red" fill="transparent" stroke-width="2"/>
<text x="-9223372036854775773" y="-9223372036854775773" >7</text>
</svg>