
	<svg version="1.1"
	baseProfile="full"
	xmlns="http://www.w3.org/2000/svg"
	xmlns:xlink="http://www.w3.org/1999/xlink"
	xmlns:ev="http://www.w3.org/2001/xml-events">
	
<rect x="30" y="30" width="1200" height="600" stroke="grey" fill="transparent" />
<circle cx="1047" cy="630" r="1" stroke="red" fill="transparent" stroke-width="1"/>
<text x="1048" y="631" >0</text>
<line x1="1047" y1="630" x2="558" y2="541" stroke="blue" stroke-width="1"/>
<line x1="1047" y1="630" x2="1230" y2="236" stroke="blue" stroke-width="1"/>
<line x1="1047" y1="630" x2="861" y2="384" stroke="blue" stroke-width="1"/>
<line x1="1047" y1="630" x2="529" y2="239" stroke="blue" stroke-width="1"/>
<circle cx="558" cy="541" r="1" stroke="red" fill="transparent" stroke-width="1"/>
<text x="559" y="542" >1</text>
<line x1="558" y1="541" x2="855" y2="30" stroke="blue" stroke-width="1"/>
<line x1="558" y1="541" x2="861" y2="384" stroke="blue" stroke-width="1"/>
<line x1="558" y1="541" x2="189" y2="577" stroke="blue" stroke-width="1"/>
<line x1="558" y1="541" x2="30" y2="265" stroke="blue" stroke-width="1"/>
<circle cx="855" cy="30" r="1" stroke="red" fill="transparent" stroke-width="1"/>
<text x="856" y="31" >2</text>
<line x1="855" y1="30" x2="1230" y2="236" stroke="blue" stroke-width="1"/>
<line x1="855" y1="30" x2="861" y2="384" stroke="blue" stroke-width="1"/>
<circle cx="1230" cy="236" r="1" stroke="red" fill="transparent" stroke-width="1"/>
<text x="1231" y="237" >3</text>
<line x1="1230" y1="236" x2="861" y2="384" stroke="blue" stroke-width="1"/>
<line x1="1230" y1="236" x2="529" y2="239" stroke="blue" stroke-width="1"/>
<circle cx="861" cy="384" r="1" stroke="red" fill="transparent" stroke-width="1"/>
<text x="862" y="385" >4</text>
<line x1="861" y1="384" x2="189" y2="577" stroke="blue" stroke-width="1"/>
<circle cx="529" cy="239" r="1" stroke="red" fill="transparent" stroke-width="1"/>
<text x="530" y="240" >5</text>
<line x1="529" y1="239" x2="189" y2="577" stroke="blue" stroke-width="1"/>
<line x1="529" y1="239" x2="30" y2="265" stroke="blue" stroke-width="1"/>
<circle cx="189" cy="577" r="1" stroke="red" fill="transparent" stroke-width="1"/>
<text x="190" y="578" >6</text>
<line x1="189" y1="577" x2="30" y2="265" stroke="blue" stroke-width="1"/>
<circle cx="30" cy="265" r="1" stroke="red" fill="transparent" stroke-width="1"/>
<text x="31" y="266" >7</text>
</svg>