
	<svg version="1.1"
	baseProfile="full"
	xmlns="http://www.w3.org/2000/svg"
	xmlns:xlink="http://www.w3.org/1999/xlink"
	xmlns:ev="http://www.w3.org/2001/xml-events">
	
<rect x="30" y="30" width="1200" height="600" stroke="grey" fill="transparent" />
<circle cx="750" cy="30" r="1" stroke="red" fill="transparent" stroke-width="1"/>
<text x="751" y="31" >0</text>
<line x1="750" y1="30" x2="607" y2="472" stroke="blue" stroke-width="1"/>
<line x1="750" y1="30" x2="950" y2="521" stroke="blue" stroke-width="1"/>
<line x1="750" y1="30" x2="822" y2="281" stroke="blue" stroke-width="1"/>
<line x1="750" y1="30" x2="388" y2="229" stroke="blue" stroke-width="1"/>
<circle cx="607" cy="472" r="1" stroke="red" fill="transparent" stroke-width="1"/>
<text x="608" y="473" >1</text>
<line x1="607" y1="472" x2="1230" y2="320" stroke="blue" stroke-width="1"/>
<line x1="607" y1="472" x2="822" y2="281" stroke="blue" stroke-width="1"/>
<line x1="607" y1="472" x2="332" y2="630" stroke="blue" stroke-width="1"/>
<line x1="607" y1="472" x2="30" y2="410" stroke="blue" stroke-width="1"/>
<circle cx="1230" cy="320" r="1" stroke="red" fill="transparent" stroke-width="1"/>
<text x="1231" y="321" >2</text>
<line x1="1230" y1="320" x2="950" y2="521" stroke="blue" stroke-width="1"/>
<line x1="1230" y1="320" x2="822" y2="281" stroke="blue" stroke-width="1"/>
<circle cx="950" cy="521" r="1" stroke="red" fill="transparent" stroke-width="1"/>
<text x="951" y="522" >3</text>
<line x1="950" y1="521" x2="822" y2="281" stroke="blue" stroke-width="1"/>
<line x1="950" y1="521" x2="388" y2="229" stroke="blue" stroke-width="1"/>
<circle cx="822" cy="281" r="1" stroke="red" fill="transparent" stroke-width="1"/>
<text x="823" y="282" >4</text>
<line x1="822" y1="281" x2="332" y2="630" stroke="blue" stroke-width="1"/>
<circle cx="388" cy="229" r="1" stroke="red" fill="transparent" stroke-width="1"/>
<text x="389" y="230" >5</text>
<line x1="388" y1="229" x2="332" y2="630" stroke="blue" stroke-width="1"/>
<line x1="388" y1="229" x2="30" y2="410" stroke="blue" stroke-width="1"/>
<circle cx="332" cy="630" r="1" stroke="red" fill="transparent" stroke-width="1"/>
<text x="333" y="631" >6</text>
<line x1="332" y1="630" x2="30" y2="410" stroke="blue" stroke-width="1"/>
<circle cx="30" cy="410" r="1" stroke="red" fill="transparent" stroke-width="1"/>
<text x="31" y="411" >7</text>
</svg>