
	<svg version="1.1"
	baseProfile="full"
	xmlns="http://www.w3.org/2000/svg"
	xmlns:xlink="http://www.w3.org/1999/xlink"
	xmlns:ev="http://www.w3.org/2001/xml-events">
	
<rect x="30" y="30" width="1200" height="600" stroke="grey" fill="transparent" />
<circle cx="992" cy="71" r="5" stroke="red" fill="transparent" stroke-width="2"/>
<text x="997" y="76" >0</text>
<line x1="992" y1="71" x2="30" y2="630" stroke="blue" stroke-width="2"/>
<line x1="992" y1="71" x2="1130" y2="132" stroke="blue" stroke-width="2"/>
<line x1="992" y1="71" x2="47" y2="30" stroke="blue" stroke-width="2"/>
<line x1="992" y1="71" x2="416" y2="173" stroke="blue" stroke-width="2"/>
<circle cx="30" cy="630" r="5" stroke="red" fill="transparent" stroke-width="2"/>
<text x="35" y="635" >1</text>
<line x1="30" y1="630" x2="1230" y2="79" stroke="blue" stroke-width="2"/>
<line x1="30" y1="630" x2="47" y2="30" stroke="blue" stroke-width="2"/>
<line x1="30" y1="630" x2="300" y2="219" stroke="blue" stroke-width="2"/>
<line x1="30" y1="630" x2="210" y2="134" stroke="blue" stroke-width="2"/>
<circle cx="1230" cy="79" r="5" stroke="red" fill="transparent" stroke-width="2"/>
<text x="1235" y="84" >2</text>
<line x1="1230" y1="79" x2="1130" y2="132" stroke="blue" stroke-width="2"/>
<line x1="1230" y1="79" x2="47" y2="30" stroke="blue" stroke-width="2"/>
<circle cx="1130" cy="132" r="5" stroke="red" fill="transparent" stroke-width="2"/>
<text x="1135" y="137" >3</text>
<line x1="1130" y1="132" x2="47" y2="30" stroke="blue" stroke-width="2"/>
<line x1="1130" y1="132" x2="416" y2="173" stroke="blue" stroke-width="2"/>
<circle cx="47" cy="30" r="5" stroke="red" fill="transparent" stroke-width="2"/>
<text x="52" y="35" >4</text>
<line x1="47" y1="30" x2="300" y2="219" stroke="blue" stroke-width="2"/>
<circle cx="416" cy="173" r="5" stroke="red" fill="transparent" stroke-width="2"/>
<text x="421" y="178" >5</text>
<line x1="416" y1="173" x2="300" y2="219" stroke="blue" stroke-width="2"/>
<line x1="416" y1="173" x2="210" y2="134" stroke="blue" stroke-width="2"/>
<circle cx="300" cy="219" r="5" stroke="red" fill="transparent" stroke-width="2"/>
<text x="305" y="224" >6</text>
<line x1="300" y1="219" x2="210" y2="134" stroke="blue" stroke-width="2"/>
<circle cx="210" cy="134" r="5" stroke="red" fill="transparent" stroke-width="2"/>
<text x="215" y="139" >7</text>
</svg>