
	<svg version="1.1"
	baseProfile="full"
	xmlns="http://www.w3.org/2000/svg"
	xmlns:xlink="http://www.w3.org/1999/xlink"
	xmlns:ev="http://www.w3.org/2001/xml-events">
	
<rect x="30" y="30" width="1200" height="600" stroke="grey" fill="transparent" />
<circle cx="833" cy="440" r="5" stroke="red" fill="transparent" stroke-width="2"/>
<text x="838" y="445" >0</text>
<line x1="833" y1="440" x2="471" y2="132" stroke="blue" stroke-width="2"/>
<line x1="833" y1="440" x2="1230" y2="400" stroke="blue" stroke-width="2"/>
<line x1="833" y1="440" x2="873" y2="201" stroke="blue" stroke-width="2"/>
<line x1="833" y1="440" x2="595" y2="630" stroke="blue" stroke-width="2"/>
<circle cx="471" cy="132" r="5" stroke="red" fill="transparent" stroke-width="2"/>
<text x="476" y="137" >1</text>
<line x1="471" y1="132" x2="1134" y2="30" stroke="blue" stroke-width="2"/>
<line x1="471" y1="132" x2="873" y2="201" stroke="blue" stroke-width="2"/>
<line x1="471" y1="132" x2="396" y2="366" stroke="blue" stroke-width="2"/>
<line x1="471" y1="132" x2="30" y2="441" stroke="blue" stroke-width="2"/>
<circle cx="1134" cy="30" r="5" stroke="red" fill="transparent" stroke-width="2"/>
<text x="1139" y="35" >2</text>
<line x1="1134" y1="30" x2="1230" y2="400" stroke="blue" stroke-width="2"/>
<line x1="1134" y1="30" x2="873" y2="201" stroke="blue" stroke-width="2"/>
<circle cx="1230" cy="400" r="5" stroke="red" fill="transparent" stroke-width="2"/>
<text x="1235" y="405" >3</text>
<line x1="1230" y1="400" x2="873" y2="201" stroke="blue" stroke-width="2"/>
<line x1="1230" y1="400" x2="595" y2="630" stroke="blue" stroke-width="2"/>
<circle cx="873" cy="201" r="5" stroke="red" fill="transparent" stroke-width="2"/>
<text x="878" y="206" >4</text>
<line x1="873" y1="201" x2="396" y2="366" stroke="blue" stroke-width="2"/>
<circle cx="595" cy="630" r="5" stroke="red" fill="transparent" stroke-width="2"/>
<text x="600" y="635" >5</text>
<line x1="595" y1="630" x2="396" y2="366" stroke="blue" stroke-width="2"/>
<line x1="595" y1="630" x2="30" y2="441" stroke="blue" stroke-width="2"/>
<circle cx="396" cy="366" r="5" stroke="red" fill="transparent" stroke-width="2"/>
<text x="401" y="371" >6</text>
<line x1="396" y1="366" x2="30" y2="441" stroke="blue" stroke-width="2"/>
<circle cx="30" cy="441" r="5" stroke="red" fill="transparent" stroke-width="2"/>
<text x="35" y="446" >7</text>
</svg>