
	<svg version="1.1"
	baseProfile="full"
	xmlns="http://www.w3.org/2000/svg"
	xmlns:xlink="http://www.w3.org/1999/xlink"
	xmlns:ev="http://www.w3.org/2001/xml-events">
	
<rect x="30" y="30" width="1200" height="600" stroke="grey" fill="transparent" />
<circle cx="916" cy="225" r="5" stroke="red" fill="transparent" stroke-width="2"/>
<text x="921" y="230" >0</text>
<line x1="916" y1="225" x2="732" y2="573" stroke="blue" stroke-width="2"/>
<line x1="916" y1="225" x2="1191" y2="452" stroke="blue" stroke-width="2"/>
<line x1="916" y1="225" x2="606" y2="48" stroke="blue" stroke-width="2"/>
<line x1="916" y1="225" x2="470" y2="358" stroke="blue" stroke-width="2"/>
<circle cx="732" cy="573" r="5" stroke="red" fill="transparent" stroke-width="2"/>
<text x="737" y="578" >1</text>
<line x1="732" y1="573" x2="1230" y2="30" stroke="blue" stroke-width="2"/>
<line x1="732" y1="573" x2="606" y2="48" stroke="blue" stroke-width="2"/>
<line x1="732" y1="573" x2="203" y2="630" stroke="blue" stroke-width="2"/>
<line x1="732" y1="573" x2="30" y2="276" stroke="blue" stroke-width="2"/>
<circle cx="1230" cy="30" r="5" stroke="red" fill="transparent" stroke-width="2"/>
<text x="1235" y="35" >2</text>
<line x1="1230" y1="30" x2="1191" y2="452" stroke="blue" stroke-width="2"/>
<line x1="1230" y1="30" x2="606" y2="48" stroke="blue" stroke-width="2"/>
<circle cx="1191" cy="452" r="5" stroke="red" fill="transparent" stroke-width="2"/>
<text x="1196" y="457" >3</text>
<line x1="1191" y1="452" x2="606" y2="48" stroke="blue" stroke-width="2"/>
<line x1="1191" y1="452" x2="470" y2="358" stroke="blue" stroke-width="2"/>
<circle cx="606" cy="48" r="5" stroke="red" fill="transparent" stroke-width="2"/>
<text x="611" y="53" >4</text>
<line x1="606" y1="48" x2="203" y2="630" stroke="blue" stroke-width="2"/>
<circle cx="470" cy="358" r="5" stroke="red" fill="transparent" stroke-width="2"/>
<text x="475" y="363" >5</text>
<line x1="470" y1="358" x2="203" y2="630" stroke="blue" stroke-width="2"/>
<line x1="470" y1="358" x2="30" y2="276" stroke="blue" stroke-width="2"/>
<circle cx="203" cy="630" r="5" stroke="red" fill="transparent" stroke-width="2"/>
<text x="208" y="635" >6</text>
<line x1="203" y1="630" x2="30" y2="276" stroke="blue" stroke-width="2"/>
<circle cx="30" cy="276" r="5" stroke="red" fill="transparent" stroke-width="2"/>
<text x="35" y="281" >7</text>
</svg>