
	<svg version="1.1"
	baseProfile="full"
	xmlns="http://www.w3.org/2000/svg"
	xmlns:xlink="http://www.w3.org/1999/xlink"
	xmlns:ev="http://www.w3.org/2001/xml-events">
	
<rect x="30" y="30" width="1200" height="600" stroke="grey" fill="transparent" />
<circle cx="862" cy="409" r="1" stroke="red" fill="transparent" stroke-width="1"/>
<text x="863" y="410" >0</text>
<line x1="862" y1="409" x2="61" y2="295" stroke="blue" stroke-width="1"/>
<line x1="862" y1="409" x2="895" y2="604" stroke="blue" stroke-width="1"/>
<line x1="862" y1="409" x2="334" y2="472" stroke="blue" stroke-width="1"/>
<line x1="862" y1="409" x2="1230" y2="263" stroke="blue" stroke-width="1"/>
<circle cx="61" cy="295" r="1" stroke="red" fill="transparent" stroke-width="1"/>
<text x="62" y="296" >1</text>
<line x1="61" y1="295" x2="30" y2="630" stroke="blue" stroke-width="1"/>
<line x1="61" y1="295" x2="334" y2="472" stroke="blue" stroke-width="1"/>
<line x1="61" y1="295" x2="572" y2="216" stroke="blue" stroke-width="1"/>
<line x1="61" y1="295" x2="640" y2="30" stroke="blue" stroke-width="1"/>
<circle cx="30" cy="630" r="1" stroke="red" fill="transparent" stroke-width="1"/>
<text x="31" y="631" >2</text>
<line x1="30" y1="630" x2="895" y2="604" stroke="blue" stroke-width="1"/>
<line x1="30" y1="630" x2="334" y2="472" stroke="blue" stroke-width="1"/>
<circle cx="895" cy="604" r="1" stroke="red" fill="transparent" stroke-width="1"/>
<text x="896" y="605" >3</text>
<line x1="895" y1="604" x2="334" y2="472" stroke="blue" stroke-width="1"/>
<line x1="895" y1="604" x2="1230" y2="263" stroke="blue" stroke-width="1"/>
<circle cx="334" cy="472" r="1" stroke="red" fill="transparent" stroke-width="1"/>
<text x="335" y="473" >4</text>
<line x1="334" y1="472" x2="572" y2="216" stroke="blue" stroke-width="1"/>
<circle cx="1230" cy="263" r="1" stroke="red" fill="transparent" stroke-width="1"/>
<text x="1231" y="264" >5</text>
<line x1="1230" y1="263" x2="572" y2="216" stroke="blue" stroke-width="1"/>
<line x1="1230" y1="263" x2="640" y2="30" stroke="blue" stroke-width="1"/>
<circle cx="572" cy="216" r="1" stroke="red" fill="transparent" stroke-width="1"/>
<text x="573" y="217" >6</text>
<line x1="572" y1="216" x2="640" y2="30" stroke="blue" stroke-width="1"/>
<circle cx="640" cy="30" r="1" stroke="red" fill="transparent" stroke-width="1"/>
<text x="641" y="31" >7</text>
</svg>