
	<svg version="1.1"
	baseProfile="full"
	xmlns="http://www.w3.org/2000/svg"
	xmlns:xlink="http://www.w3.org/1999/xlink"
	xmlns:ev="http://www.w3.org/2001/xml-events">
	
<rect x="30" y="30" width="1200" height="600" stroke="grey" fill="transparent" />
<circle cx="900" cy="551" r="5" stroke="red" fill="transparent" stroke-width="2"/>
<text x="905" y="556" >0</text>
<line x1="900" y1="551" x2="820" y2="331" stroke="blue" stroke-width="2"/>
<line x1="900" y1="551" x2="205" y2="630" stroke="blue" stroke-width="2"/>
<line x1="900" y1="551" x2="942" y2="30" stroke="blue" stroke-width="2"/>
<line x1="900" y1="551" x2="1219" y2="342" stroke="blue" stroke-width="2"/>
<circle cx="820" cy="331" r="5" stroke="red" fill="transparent" stroke-width="2"/>
<text x="825" y="336" >1</text>
<line x1="820" y1="331" x2="30" y2="247" stroke="blue" stroke-width="2"/>
<line x1="820" y1="331" x2="942" y2="30" stroke="blue" stroke-width="2"/>
<line x1="820" y1="331" x2="1230" y2="377" stroke="blue" stroke-width="2"/>
<line x1="820" y1="331" x2="62" y2="64" stroke="blue" stroke-width="2"/>
<circle cx="30" cy="247" r="5" stroke="red" fill="transparent" stroke-width="2"/>
<text x="35" y="252" >2</text>
<line x1="30" y1="247" x2="205" y2="630" stroke="blue" stroke-width="2"/>
<line x1="30" y1="247" x2="942" y2="30" stroke="blue" stroke-width="2"/>
<circle cx="205" cy="630" r="5" stroke="red" fill="transparent" stroke-width="2"/>
<text x="210" y="635" >3</text>
<line x1="205" y1="630" x2="942" y2="30" stroke="blue" stroke-width="2"/>
<line x1="205" y1="630" x2="1219" y2="342" stroke="blue" stroke-width="2"/>
<circle cx="942" cy="30" r="5" stroke="red" fill="transparent" stroke-width="2"/>
<text x="947" y="35" >4</text>
<line x1="942" y1="30" x2="1230" y2="377" stroke="blue" stroke-width="2"/>
<circle cx="1219" cy="342" r="5" stroke="red" fill="transparent" stroke-width="2"/>
<text x="1224" y="347" >5</text>
<line x1="1219" y1="342" x2="1230" y2="377" stroke="blue" stroke-width="2"/>
<line x1="1219" y1="342" x2="62" y2="64" stroke="blue" stroke-width="2"/>
<circle cx="1230" cy="377" r="5" stroke="red" fill="transparent" stroke-width="2"/>
<text x="1235" y="382" >6</text>
<line x1="1230" y1="377" x2="62" y2="64" stroke="blue" stroke-width="2"/>
<circle cx="62" cy="64" r="5" stroke="red" fill="transparent" stroke-width="2"/>
<text x="67" y="69" >7</text>
</svg>