
	<svg version="1.1"
	baseProfile="full"
	xmlns="http://www.w3.org/2000/svg"
	xmlns:xlink="http://www.w3.org/1999/xlink"
	xmlns:ev="http://www.w3.org/2001/xml-events">
	
<rect x="30" y="30" width="1200" height="600" stroke="grey" fill="transparent" />
<circle cx="495" cy="261" r="5" stroke="red" fill="transparent" stroke-width="2"/>
<text x="500" y="266" >0</text>
<line x1="495" y1="261" x2="581" y2="30" stroke="blue" stroke-width="2"/>
<line x1="495" y1="261" x2="1029" y2="164" stroke="blue" stroke-width="2"/>
<line x1="495" y1="261" x2="769" y2="428" stroke="blue" stroke-width="2"/>
<line x1="495" y1="261" x2="545" y2="630" stroke="blue" stroke-width="2"/>
<circle cx="581" cy="30" r="5" stroke="red" fill="transparent" stroke-width="2"/>
<text x="586" y="35" >1</text>
<line x1="581" y1="30" x2="30" y2="117" stroke="blue" stroke-width="2"/>
<line x1="581" y1="30" x2="769" y2="428" stroke="blue" stroke-width="2"/>
<line x1="581" y1="30" x2="1230" y2="414" stroke="blue" stroke-width="2"/>
<line x1="581" y1="30" x2="113" y2="431" stroke="blue" stroke-width="2"/>
<circle cx="30" cy="117" r="5" stroke="red" fill="transparent" stroke-width="2"/>
<text x="35" y="122" >2</text>
<line x1="30" y1="117" x2="1029" y2="164" stroke="blue" stroke-width="2"/>
<line x1="30" y1="117" x2="769" y2="428" stroke="blue" stroke-width="2"/>
<circle cx="1029" cy="164" r="5" stroke="red" fill="transparent" stroke-width="2"/>
<text x="1034" y="169" >3</text>
<line x1="1029" y1="164" x2="769" y2="428" stroke="blue" stroke-width="2"/>
<line x1="1029" y1="164" x2="545" y2="630" stroke="blue" stroke-width="2"/>
<circle cx="769" cy="428" r="5" stroke="red" fill="transparent" stroke-width="2"/>
<text x="774" y="433" >4</text>
<line x1="769" y1="428" x2="1230" y2="414" stroke="blue" stroke-width="2"/>
<circle cx="545" cy="630" r="5" stroke="red" fill="transparent" stroke-width="2"/>
<text x="550" y="635" >5</text>
<line x1="545" y1="630" x2="1230" y2="414" stroke="blue" stroke-width="2"/>
<line x1="545" y1="630" x2="113" y2="431" stroke="blue" stroke-width="2"/>
<circle cx="1230" cy="414" r="5" stroke="red" fill="transparent" stroke-width="2"/>
<text x="1235" y="419" >6</text>
<line x1="1230" y1="414" x2="113" y2="431" stroke="blue" stroke-width="2"/>
<circle cx="113" cy="431" r="5" stroke="red" fill="transparent" stroke-width="2"/>
<text x="118" y="436" >7</text>
</svg>