
	<svg version="1.1"
	baseProfile="full"
	xmlns="http://www.w3.org/2000/svg"
	xmlns:xlink="http://www.w3.org/1999/xlink"
	xmlns:ev="http://www.w3.org/2001/xml-events">
	
<rect x="30" y="30" width="1200" height="600" stroke="grey" fill="transparent" />
<circle cx="30" cy="438" r="5" stroke="red" fill="transparent" stroke-width="2"/>
<text x="35" y="443" >0</text>
<line x1="30" y1="438" x2="819" y2="473" stroke="blue" stroke-width="2"/>
<line x1="30" y1="438" x2="479" y2="344" stroke="blue" stroke-width="2"/>
<line x1="30" y1="438" x2="544" y2="30" stroke="blue" stroke-width="2"/>
<line x1="30" y1="438" x2="379" y2="630" stroke="blue" stroke-width="2"/>
<circle cx="819" cy="473" r="5" stroke="red" fill="transparent" stroke-width="2"/>
<text x="824" y="478" >1</text>
<line x1="819" y1="473" x2="1230" y2="174" stroke="blue" stroke-width="2"/>
<line x1="819" y1="473" x2="544" y2="30" stroke="blue" stroke-width="2"/>
<line x1="819" y1="473" x2="158" y2="175" stroke="blue" stroke-width="2"/>
<line x1="819" y1="473" x2="828" y2="219" stroke="blue" stroke-width="2"/>
<circle cx="1230" cy="174" r="5" stroke="red" fill="transparent" stroke-width="2"/>
<text x="1235" y="179" >2</text>
<line x1="1230" y1="174" x2="479" y2="344" stroke="blue" stroke-width="2"/>
<line x1="1230" y1="174" x2="544" y2="30" stroke="blue" stroke-width="2"/>
<circle cx="479" cy="344" r="5" stroke="red" fill="transparent" stroke-width="2"/>
<text x="484" y="349" >3</text>
<line x1="479" y1="344" x2="544" y2="30" stroke="blue" stroke-width="2"/>
<line x1="479" y1="344" x2="379" y2="630" stroke="blue" stroke-width="2"/>
<circle cx="544" cy="30" r="5" stroke="red" fill="transparent" stroke-width="2"/>
<text x="549" y="35" >4</text>
<line x1="544" y1="30" x2="158" y2="175" stroke="blue" stroke-width="2"/>
<circle cx="379" cy="630" r="5" stroke="red" fill="transparent" stroke-width="2"/>
<text x="384" y="635" >5</text>
<line x1="379" y1="630" x2="158" y2="175" stroke="blue" stroke-width="2"/>
<line x1="379" y1="630" x2="828" y2="219" stroke="blue" stroke-width="2"/>
<circle cx="158" cy="175" r="5" stroke="red" fill="transparent" stroke-width="2"/>
<text x="163" y="180" >6</text>
<line x1="158" y1="175" x2="828" y2="219" stroke="blue" stroke-width="2"/>
<circle cx="828" cy="219" r="5" stroke="red" fill="transparent" stroke-width="2"/>
<text x="833" y="224" >7</text>
</svg>